<svg width="75" height="75" viewBox="0 0 75 75" fill="none" xmlns="http://www.w3.org/2000/svg">
<path d="M20 52C27.15 52 33 45.8445 33 38.3773C33 34.4755 31.1475 30.7755 27.4425 27.6473C23.7375 24.5191 20.9425 19.8773 20 15C19.0575 19.8773 16.295 24.5527 12.5575 27.6473C8.82 30.7418 7 34.5091 7 38.3773C7 45.8445 12.85 52 20 52Z" stroke="#E8EAF0" stroke-width="6" stroke-linecap="round" stroke-linejoin="round"/>
<path d="M38.654 17.865C40.9639 14.2231 42.6013 10.2059 43.4903 6C45.1695 14.2856 50.2073 22.2398 56.9243 27.5426C63.6413 32.8454 66.9998 39.1424 66.9998 45.7709C67.019 50.3522 65.6593 54.8359 63.0932 58.6537C60.527 62.4715 56.8699 65.4514 52.5855 67.2157C48.3011 68.98 43.5823 69.4493 39.0274 68.5639C34.4724 67.6786 30.2864 65.4786 27 62.2427" stroke="#E8EAF0" stroke-width="6" stroke-linecap="round" stroke-linejoin="round"/>
<path d="M48 54.75L48 37.25M48 37.25L39.25 46M48 37.25L56.75 46" stroke="#E8EAF0" stroke-width="4" stroke-linecap="round" stroke-linejoin="round"/>
</svg>
