<svg width="75" height="75" viewBox="0 0 75 75" fill="none" xmlns="http://www.w3.org/2000/svg">
<g clip-path="url(#clip0_564_4362)">
<path d="M25.0001 59.3751V65.6251M25.0001 40.6251V46.8751M50.0001 59.3751V65.6251M50.0001 40.6251V46.8751M37.5001 65.6251V71.8751M37.5001 46.8751V53.1251M62.5001 51.8126C65.7852 50.3738 68.4754 47.8487 70.1191 44.6611C71.7628 41.4736 72.2599 37.8176 71.527 34.3069C70.794 30.7962 68.8757 27.6445 66.094 25.3808C63.3123 23.1171 59.8365 21.8793 56.2501 21.8751H52.3126C51.322 18.0392 49.434 14.4937 46.8042 11.5307C44.1744 8.56774 40.878 6.27219 37.1869 4.83327C33.4957 3.39435 29.5154 2.85326 25.5741 3.25459C21.6328 3.65593 17.8433 4.9882 14.5179 7.14159C11.1925 9.29498 8.42655 12.2078 6.44793 15.6401C4.46931 19.0723 3.3347 22.9256 3.13764 26.8824C2.94058 30.8392 3.68669 34.7862 5.31449 38.3981C6.94229 42.0099 9.40516 45.1832 12.5001 47.6563" stroke="#E8EAF0" stroke-width="6" stroke-linecap="round" stroke-linejoin="round"/>
</g>
<defs>
<clipPath id="clip0_564_4362">
<rect width="75" height="75" fill="white"/>
</clipPath>
</defs>
</svg>
